<?xml version="1.0" encoding="utf-8" standalone="no"?>
<!DOCTYPE svg PUBLIC "-//W3C//DTD SVG 1.1//EN"
  "http://www.w3.org/Graphics/SVG/1.1/DTD/svg11.dtd">
<svg xmlns:xlink="http://www.w3.org/1999/xlink" width="460.8pt" height="345.6pt" viewBox="0 0 460.8 345.6" xmlns="http://www.w3.org/2000/svg" version="1.1">
 <metadata>
  <rdf:RDF xmlns:dc="http://purl.org/dc/elements/1.1/" xmlns:cc="http://creativecommons.org/ns#" xmlns:rdf="http://www.w3.org/1999/02/22-rdf-syntax-ns#">
   <cc:Work>
    <dc:type rdf:resource="http://purl.org/dc/dcmitype/StillImage"/>
    <dc:date>2023-05-31T22:19:07.789508</dc:date>
    <dc:format>image/svg+xml</dc:format>
    <dc:creator>
     <cc:Agent>
      <dc:title>Matplotlib v3.7.1, https://matplotlib.org/</dc:title>
     </cc:Agent>
    </dc:creator>
   </cc:Work>
  </rdf:RDF>
 </metadata>
 <defs>
  <style type="text/css">*{stroke-linejoin: round; stroke-linecap: butt}</style>
 </defs>
 <g id="figure_1">
  <g id="patch_1">
   <path d="M 0 345.6 
L 460.8 345.6 
L 460.8 0 
L 0 0 
z
" style="fill: #ffffff"/>
  </g>
  <g id="axes_1">
   <g id="patch_2">
    <path d="M 57.6 307.584 
L 414.72 307.584 
L 414.72 41.472 
L 57.6 41.472 
z
" style="fill: #ffffff"/>
   </g>
   <g id="matplotlib.axis_1">
    <g id="xtick_1">
     <g id="line2d_1">
      <defs>
       <path id="mf6db603a8d" d="M 0 0 
L 0 3.5 
" style="stroke: #000000; stroke-width: 0.8"/>
      </defs>
      <g>
       <use xlink:href="#mf6db603a8d" x="414.72" y="307.584" style="stroke: #000000; stroke-width: 0.8"/>
      </g>
     </g>
     <g id="text_1">
      <!-- 500 -->
      <g transform="translate(405.17625 322.182437) scale(0.1 -0.1)">
       <defs>
        <path id="DejaVuSans-35" d="M 691 4666 
L 3169 4666 
L 3169 4134 
L 1269 4134 
L 1269 2991 
Q 1406 3038 1543 3061 
Q 1681 3084 1819 3084 
Q 2600 3084 3056 2656 
Q 3513 2228 3513 1497 
Q 3513 744 3044 326 
Q 2575 -91 1722 -91 
Q 1428 -91 1123 -41 
Q 819 9 494 109 
L 494 744 
Q 775 591 1075 516 
Q 1375 441 1709 441 
Q 2250 441 2565 725 
Q 2881 1009 2881 1497 
Q 2881 1984 2565 2268 
Q 2250 2553 1709 2553 
Q 1456 2553 1204 2497 
Q 953 2441 691 2322 
L 691 4666 
z
" transform="scale(0.015625)"/>
        <path id="DejaVuSans-30" d="M 2034 4250 
Q 1547 4250 1301 3770 
Q 1056 3291 1056 2328 
Q 1056 1369 1301 889 
Q 1547 409 2034 409 
Q 2525 409 2770 889 
Q 3016 1369 3016 2328 
Q 3016 3291 2770 3770 
Q 2525 4250 2034 4250 
z
M 2034 4750 
Q 2819 4750 3233 4129 
Q 3647 3509 3647 2328 
Q 3647 1150 3233 529 
Q 2819 -91 2034 -91 
Q 1250 -91 836 529 
Q 422 1150 422 2328 
Q 422 3509 836 4129 
Q 1250 4750 2034 4750 
z
" transform="scale(0.015625)"/>
       </defs>
       <use xlink:href="#DejaVuSans-35"/>
       <use xlink:href="#DejaVuSans-30" x="63.623047"/>
       <use xlink:href="#DejaVuSans-30" x="127.246094"/>
      </g>
     </g>
    </g>
    <g id="xtick_2">
     <g id="line2d_2">
      <g>
       <use xlink:href="#mf6db603a8d" x="363.702857" y="307.584" style="stroke: #000000; stroke-width: 0.8"/>
      </g>
     </g>
     <g id="text_2">
      <!-- 1000 -->
      <g transform="translate(350.977857 322.182437) scale(0.1 -0.1)">
       <defs>
        <path id="DejaVuSans-31" d="M 794 531 
L 1825 531 
L 1825 4091 
L 703 3866 
L 703 4441 
L 1819 4666 
L 2450 4666 
L 2450 531 
L 3481 531 
L 3481 0 
L 794 0 
L 794 531 
z
" transform="scale(0.015625)"/>
       </defs>
       <use xlink:href="#DejaVuSans-31"/>
       <use xlink:href="#DejaVuSans-30" x="63.623047"/>
       <use xlink:href="#DejaVuSans-30" x="127.246094"/>
       <use xlink:href="#DejaVuSans-30" x="190.869141"/>
      </g>
     </g>
    </g>
    <g id="xtick_3">
     <g id="line2d_3">
      <g>
       <use xlink:href="#mf6db603a8d" x="312.685714" y="307.584" style="stroke: #000000; stroke-width: 0.8"/>
      </g>
     </g>
     <g id="text_3">
      <!-- 1500 -->
      <g transform="translate(299.960714 322.182437) scale(0.1 -0.1)">
       <use xlink:href="#DejaVuSans-31"/>
       <use xlink:href="#DejaVuSans-35" x="63.623047"/>
       <use xlink:href="#DejaVuSans-30" x="127.246094"/>
       <use xlink:href="#DejaVuSans-30" x="190.869141"/>
      </g>
     </g>
    </g>
    <g id="xtick_4">
     <g id="line2d_4">
      <g>
       <use xlink:href="#mf6db603a8d" x="261.668571" y="307.584" style="stroke: #000000; stroke-width: 0.8"/>
      </g>
     </g>
     <g id="text_4">
      <!-- 2000 -->
      <g transform="translate(248.943571 322.182437) scale(0.1 -0.1)">
       <defs>
        <path id="DejaVuSans-32" d="M 1228 531 
L 3431 531 
L 3431 0 
L 469 0 
L 469 531 
Q 828 903 1448 1529 
Q 2069 2156 2228 2338 
Q 2531 2678 2651 2914 
Q 2772 3150 2772 3378 
Q 2772 3750 2511 3984 
Q 2250 4219 1831 4219 
Q 1534 4219 1204 4116 
Q 875 4013 500 3803 
L 500 4441 
Q 881 4594 1212 4672 
Q 1544 4750 1819 4750 
Q 2544 4750 2975 4387 
Q 3406 4025 3406 3419 
Q 3406 3131 3298 2873 
Q 3191 2616 2906 2266 
Q 2828 2175 2409 1742 
Q 1991 1309 1228 531 
z
" transform="scale(0.015625)"/>
       </defs>
       <use xlink:href="#DejaVuSans-32"/>
       <use xlink:href="#DejaVuSans-30" x="63.623047"/>
       <use xlink:href="#DejaVuSans-30" x="127.246094"/>
       <use xlink:href="#DejaVuSans-30" x="190.869141"/>
      </g>
     </g>
    </g>
    <g id="xtick_5">
     <g id="line2d_5">
      <g>
       <use xlink:href="#mf6db603a8d" x="210.651429" y="307.584" style="stroke: #000000; stroke-width: 0.8"/>
      </g>
     </g>
     <g id="text_5">
      <!-- 2500 -->
      <g transform="translate(197.926429 322.182437) scale(0.1 -0.1)">
       <use xlink:href="#DejaVuSans-32"/>
       <use xlink:href="#DejaVuSans-35" x="63.623047"/>
       <use xlink:href="#DejaVuSans-30" x="127.246094"/>
       <use xlink:href="#DejaVuSans-30" x="190.869141"/>
      </g>
     </g>
    </g>
    <g id="xtick_6">
     <g id="line2d_6">
      <g>
       <use xlink:href="#mf6db603a8d" x="159.634286" y="307.584" style="stroke: #000000; stroke-width: 0.8"/>
      </g>
     </g>
     <g id="text_6">
      <!-- 3000 -->
      <g transform="translate(146.909286 322.182437) scale(0.1 -0.1)">
       <defs>
        <path id="DejaVuSans-33" d="M 2597 2516 
Q 3050 2419 3304 2112 
Q 3559 1806 3559 1356 
Q 3559 666 3084 287 
Q 2609 -91 1734 -91 
Q 1441 -91 1130 -33 
Q 819 25 488 141 
L 488 750 
Q 750 597 1062 519 
Q 1375 441 1716 441 
Q 2309 441 2620 675 
Q 2931 909 2931 1356 
Q 2931 1769 2642 2001 
Q 2353 2234 1838 2234 
L 1294 2234 
L 1294 2753 
L 1863 2753 
Q 2328 2753 2575 2939 
Q 2822 3125 2822 3475 
Q 2822 3834 2567 4026 
Q 2313 4219 1838 4219 
Q 1578 4219 1281 4162 
Q 984 4106 628 3988 
L 628 4550 
Q 988 4650 1302 4700 
Q 1616 4750 1894 4750 
Q 2613 4750 3031 4423 
Q 3450 4097 3450 3541 
Q 3450 3153 3228 2886 
Q 3006 2619 2597 2516 
z
" transform="scale(0.015625)"/>
       </defs>
       <use xlink:href="#DejaVuSans-33"/>
       <use xlink:href="#DejaVuSans-30" x="63.623047"/>
       <use xlink:href="#DejaVuSans-30" x="127.246094"/>
       <use xlink:href="#DejaVuSans-30" x="190.869141"/>
      </g>
     </g>
    </g>
    <g id="xtick_7">
     <g id="line2d_7">
      <g>
       <use xlink:href="#mf6db603a8d" x="108.617143" y="307.584" style="stroke: #000000; stroke-width: 0.8"/>
      </g>
     </g>
     <g id="text_7">
      <!-- 3500 -->
      <g transform="translate(95.892143 322.182437) scale(0.1 -0.1)">
       <use xlink:href="#DejaVuSans-33"/>
       <use xlink:href="#DejaVuSans-35" x="63.623047"/>
       <use xlink:href="#DejaVuSans-30" x="127.246094"/>
       <use xlink:href="#DejaVuSans-30" x="190.869141"/>
      </g>
     </g>
    </g>
    <g id="xtick_8">
     <g id="line2d_8">
      <g>
       <use xlink:href="#mf6db603a8d" x="57.6" y="307.584" style="stroke: #000000; stroke-width: 0.8"/>
      </g>
     </g>
     <g id="text_8">
      <!-- 4000 -->
      <g transform="translate(44.875 322.182437) scale(0.1 -0.1)">
       <defs>
        <path id="DejaVuSans-34" d="M 2419 4116 
L 825 1625 
L 2419 1625 
L 2419 4116 
z
M 2253 4666 
L 3047 4666 
L 3047 1625 
L 3713 1625 
L 3713 1100 
L 3047 1100 
L 3047 0 
L 2419 0 
L 2419 1100 
L 313 1100 
L 313 1709 
L 2253 4666 
z
" transform="scale(0.015625)"/>
       </defs>
       <use xlink:href="#DejaVuSans-34"/>
       <use xlink:href="#DejaVuSans-30" x="63.623047"/>
       <use xlink:href="#DejaVuSans-30" x="127.246094"/>
       <use xlink:href="#DejaVuSans-30" x="190.869141"/>
      </g>
     </g>
    </g>
    <g id="text_9">
     <!-- Numero d'onda / $cm^{-1}$ -->
     <g transform="translate(179.56 336.182437) scale(0.1 -0.1)">
      <defs>
       <path id="DejaVuSans-4e" d="M 628 4666 
L 1478 4666 
L 3547 763 
L 3547 4666 
L 4159 4666 
L 4159 0 
L 3309 0 
L 1241 3903 
L 1241 0 
L 628 0 
L 628 4666 
z
" transform="scale(0.015625)"/>
       <path id="DejaVuSans-75" d="M 544 1381 
L 544 3500 
L 1119 3500 
L 1119 1403 
Q 1119 906 1312 657 
Q 1506 409 1894 409 
Q 2359 409 2629 706 
Q 2900 1003 2900 1516 
L 2900 3500 
L 3475 3500 
L 3475 0 
L 2900 0 
L 2900 538 
Q 2691 219 2414 64 
Q 2138 -91 1772 -91 
Q 1169 -91 856 284 
Q 544 659 544 1381 
z
M 1991 3584 
L 1991 3584 
z
" transform="scale(0.015625)"/>
       <path id="DejaVuSans-6d" d="M 3328 2828 
Q 3544 3216 3844 3400 
Q 4144 3584 4550 3584 
Q 5097 3584 5394 3201 
Q 5691 2819 5691 2113 
L 5691 0 
L 5113 0 
L 5113 2094 
Q 5113 2597 4934 2840 
Q 4756 3084 4391 3084 
Q 3944 3084 3684 2787 
Q 3425 2491 3425 1978 
L 3425 0 
L 2847 0 
L 2847 2094 
Q 2847 2600 2669 2842 
Q 2491 3084 2119 3084 
Q 1678 3084 1418 2786 
Q 1159 2488 1159 1978 
L 1159 0 
L 581 0 
L 581 3500 
L 1159 3500 
L 1159 2956 
Q 1356 3278 1631 3431 
Q 1906 3584 2284 3584 
Q 2666 3584 2933 3390 
Q 3200 3197 3328 2828 
z
" transform="scale(0.015625)"/>
       <path id="DejaVuSans-65" d="M 3597 1894 
L 3597 1613 
L 953 1613 
Q 991 1019 1311 708 
Q 1631 397 2203 397 
Q 2534 397 2845 478 
Q 3156 559 3463 722 
L 3463 178 
Q 3153 47 2828 -22 
Q 2503 -91 2169 -91 
Q 1331 -91 842 396 
Q 353 884 353 1716 
Q 353 2575 817 3079 
Q 1281 3584 2069 3584 
Q 2775 3584 3186 3129 
Q 3597 2675 3597 1894 
z
M 3022 2063 
Q 3016 2534 2758 2815 
Q 2500 3097 2075 3097 
Q 1594 3097 1305 2825 
Q 1016 2553 972 2059 
L 3022 2063 
z
" transform="scale(0.015625)"/>
       <path id="DejaVuSans-72" d="M 2631 2963 
Q 2534 3019 2420 3045 
Q 2306 3072 2169 3072 
Q 1681 3072 1420 2755 
Q 1159 2438 1159 1844 
L 1159 0 
L 581 0 
L 581 3500 
L 1159 3500 
L 1159 2956 
Q 1341 3275 1631 3429 
Q 1922 3584 2338 3584 
Q 2397 3584 2469 3576 
Q 2541 3569 2628 3553 
L 2631 2963 
z
" transform="scale(0.015625)"/>
       <path id="DejaVuSans-6f" d="M 1959 3097 
Q 1497 3097 1228 2736 
Q 959 2375 959 1747 
Q 959 1119 1226 758 
Q 1494 397 1959 397 
Q 2419 397 2687 759 
Q 2956 1122 2956 1747 
Q 2956 2369 2687 2733 
Q 2419 3097 1959 3097 
z
M 1959 3584 
Q 2709 3584 3137 3096 
Q 3566 2609 3566 1747 
Q 3566 888 3137 398 
Q 2709 -91 1959 -91 
Q 1206 -91 779 398 
Q 353 888 353 1747 
Q 353 2609 779 3096 
Q 1206 3584 1959 3584 
z
" transform="scale(0.015625)"/>
       <path id="DejaVuSans-20" transform="scale(0.015625)"/>
       <path id="DejaVuSans-64" d="M 2906 2969 
L 2906 4863 
L 3481 4863 
L 3481 0 
L 2906 0 
L 2906 525 
Q 2725 213 2448 61 
Q 2172 -91 1784 -91 
Q 1150 -91 751 415 
Q 353 922 353 1747 
Q 353 2572 751 3078 
Q 1150 3584 1784 3584 
Q 2172 3584 2448 3432 
Q 2725 3281 2906 2969 
z
M 947 1747 
Q 947 1113 1208 752 
Q 1469 391 1925 391 
Q 2381 391 2643 752 
Q 2906 1113 2906 1747 
Q 2906 2381 2643 2742 
Q 2381 3103 1925 3103 
Q 1469 3103 1208 2742 
Q 947 2381 947 1747 
z
" transform="scale(0.015625)"/>
       <path id="DejaVuSans-27" d="M 1147 4666 
L 1147 2931 
L 616 2931 
L 616 4666 
L 1147 4666 
z
" transform="scale(0.015625)"/>
       <path id="DejaVuSans-6e" d="M 3513 2113 
L 3513 0 
L 2938 0 
L 2938 2094 
Q 2938 2591 2744 2837 
Q 2550 3084 2163 3084 
Q 1697 3084 1428 2787 
Q 1159 2491 1159 1978 
L 1159 0 
L 581 0 
L 581 3500 
L 1159 3500 
L 1159 2956 
Q 1366 3272 1645 3428 
Q 1925 3584 2291 3584 
Q 2894 3584 3203 3211 
Q 3513 2838 3513 2113 
z
" transform="scale(0.015625)"/>
       <path id="DejaVuSans-61" d="M 2194 1759 
Q 1497 1759 1228 1600 
Q 959 1441 959 1056 
Q 959 750 1161 570 
Q 1363 391 1709 391 
Q 2188 391 2477 730 
Q 2766 1069 2766 1631 
L 2766 1759 
L 2194 1759 
z
M 3341 1997 
L 3341 0 
L 2766 0 
L 2766 531 
Q 2569 213 2275 61 
Q 1981 -91 1556 -91 
Q 1019 -91 701 211 
Q 384 513 384 1019 
Q 384 1609 779 1909 
Q 1175 2209 1959 2209 
L 2766 2209 
L 2766 2266 
Q 2766 2663 2505 2880 
Q 2244 3097 1772 3097 
Q 1472 3097 1187 3025 
Q 903 2953 641 2809 
L 641 3341 
Q 956 3463 1253 3523 
Q 1550 3584 1831 3584 
Q 2591 3584 2966 3190 
Q 3341 2797 3341 1997 
z
" transform="scale(0.015625)"/>
       <path id="DejaVuSans-2f" d="M 1625 4666 
L 2156 4666 
L 531 -594 
L 0 -594 
L 1625 4666 
z
" transform="scale(0.015625)"/>
       <path id="DejaVuSans-Oblique-63" d="M 3431 3366 
L 3316 2797 
Q 3109 2947 2876 3022 
Q 2644 3097 2394 3097 
Q 2119 3097 1870 3000 
Q 1622 2903 1453 2725 
Q 1184 2453 1037 2087 
Q 891 1722 891 1331 
Q 891 859 1127 628 
Q 1363 397 1844 397 
Q 2081 397 2348 469 
Q 2616 541 2906 684 
L 2797 116 
Q 2547 13 2283 -39 
Q 2019 -91 1741 -91 
Q 1044 -91 669 257 
Q 294 606 294 1253 
Q 294 1797 489 2255 
Q 684 2713 1069 3078 
Q 1331 3328 1684 3456 
Q 2038 3584 2456 3584 
Q 2700 3584 2940 3529 
Q 3181 3475 3431 3366 
z
" transform="scale(0.015625)"/>
       <path id="DejaVuSans-Oblique-6d" d="M 5747 2113 
L 5338 0 
L 4763 0 
L 5166 2094 
Q 5191 2228 5203 2325 
Q 5216 2422 5216 2491 
Q 5216 2772 5059 2928 
Q 4903 3084 4622 3084 
Q 4203 3084 3875 2770 
Q 3547 2456 3450 1953 
L 3066 0 
L 2491 0 
L 2900 2094 
Q 2925 2209 2937 2307 
Q 2950 2406 2950 2484 
Q 2950 2769 2794 2926 
Q 2638 3084 2363 3084 
Q 1938 3084 1609 2770 
Q 1281 2456 1184 1953 
L 800 0 
L 225 0 
L 909 3500 
L 1484 3500 
L 1375 2956 
Q 1609 3263 1923 3423 
Q 2238 3584 2597 3584 
Q 2978 3584 3223 3384 
Q 3469 3184 3519 2828 
Q 3781 3197 4126 3390 
Q 4472 3584 4856 3584 
Q 5306 3584 5551 3325 
Q 5797 3066 5797 2591 
Q 5797 2488 5784 2364 
Q 5772 2241 5747 2113 
z
" transform="scale(0.015625)"/>
       <path id="DejaVuSans-2212" d="M 678 2272 
L 4684 2272 
L 4684 1741 
L 678 1741 
L 678 2272 
z
" transform="scale(0.015625)"/>
      </defs>
      <use xlink:href="#DejaVuSans-4e" transform="translate(0 0.684375)"/>
      <use xlink:href="#DejaVuSans-75" transform="translate(74.804688 0.684375)"/>
      <use xlink:href="#DejaVuSans-6d" transform="translate(138.183594 0.684375)"/>
      <use xlink:href="#DejaVuSans-65" transform="translate(235.595703 0.684375)"/>
      <use xlink:href="#DejaVuSans-72" transform="translate(297.119141 0.684375)"/>
      <use xlink:href="#DejaVuSans-6f" transform="translate(338.232422 0.684375)"/>
      <use xlink:href="#DejaVuSans-20" transform="translate(399.414062 0.684375)"/>
      <use xlink:href="#DejaVuSans-64" transform="translate(431.201172 0.684375)"/>
      <use xlink:href="#DejaVuSans-27" transform="translate(494.677734 0.684375)"/>
      <use xlink:href="#DejaVuSans-6f" transform="translate(522.167969 0.684375)"/>
      <use xlink:href="#DejaVuSans-6e" transform="translate(583.349609 0.684375)"/>
      <use xlink:href="#DejaVuSans-64" transform="translate(646.728516 0.684375)"/>
      <use xlink:href="#DejaVuSans-61" transform="translate(710.205078 0.684375)"/>
      <use xlink:href="#DejaVuSans-20" transform="translate(771.484375 0.684375)"/>
      <use xlink:href="#DejaVuSans-2f" transform="translate(803.271484 0.684375)"/>
      <use xlink:href="#DejaVuSans-20" transform="translate(836.962891 0.684375)"/>
      <use xlink:href="#DejaVuSans-Oblique-63" transform="translate(868.75 0.684375)"/>
      <use xlink:href="#DejaVuSans-Oblique-6d" transform="translate(923.730469 0.684375)"/>
      <use xlink:href="#DejaVuSans-2212" transform="translate(1025.792474 38.965625) scale(0.7)"/>
      <use xlink:href="#DejaVuSans-31" transform="translate(1084.444818 38.965625) scale(0.7)"/>
     </g>
    </g>
   </g>
   <g id="matplotlib.axis_2">
    <g id="ytick_1">
     <g id="line2d_9">
      <defs>
       <path id="m8f4fd85fdf" d="M 0 0 
L -3.5 0 
" style="stroke: #000000; stroke-width: 0.8"/>
      </defs>
      <g>
       <use xlink:href="#m8f4fd85fdf" x="57.6" y="307.584" style="stroke: #000000; stroke-width: 0.8"/>
      </g>
     </g>
     <g id="text_10">
      <!-- 0 -->
      <g transform="translate(44.2375 311.383219) scale(0.1 -0.1)">
       <use xlink:href="#DejaVuSans-30"/>
      </g>
     </g>
    </g>
    <g id="ytick_2">
     <g id="line2d_10">
      <g>
       <use xlink:href="#m8f4fd85fdf" x="57.6" y="254.3616" style="stroke: #000000; stroke-width: 0.8"/>
      </g>
     </g>
     <g id="text_11">
      <!-- 20 -->
      <g transform="translate(37.875 258.160819) scale(0.1 -0.1)">
       <use xlink:href="#DejaVuSans-32"/>
       <use xlink:href="#DejaVuSans-30" x="63.623047"/>
      </g>
     </g>
    </g>
    <g id="ytick_3">
     <g id="line2d_11">
      <g>
       <use xlink:href="#m8f4fd85fdf" x="57.6" y="201.1392" style="stroke: #000000; stroke-width: 0.8"/>
      </g>
     </g>
     <g id="text_12">
      <!-- 40 -->
      <g transform="translate(37.875 204.938419) scale(0.1 -0.1)">
       <use xlink:href="#DejaVuSans-34"/>
       <use xlink:href="#DejaVuSans-30" x="63.623047"/>
      </g>
     </g>
    </g>
    <g id="ytick_4">
     <g id="line2d_12">
      <g>
       <use xlink:href="#m8f4fd85fdf" x="57.6" y="147.9168" style="stroke: #000000; stroke-width: 0.8"/>
      </g>
     </g>
     <g id="text_13">
      <!-- 60 -->
      <g transform="translate(37.875 151.716019) scale(0.1 -0.1)">
       <defs>
        <path id="DejaVuSans-36" d="M 2113 2584 
Q 1688 2584 1439 2293 
Q 1191 2003 1191 1497 
Q 1191 994 1439 701 
Q 1688 409 2113 409 
Q 2538 409 2786 701 
Q 3034 994 3034 1497 
Q 3034 2003 2786 2293 
Q 2538 2584 2113 2584 
z
M 3366 4563 
L 3366 3988 
Q 3128 4100 2886 4159 
Q 2644 4219 2406 4219 
Q 1781 4219 1451 3797 
Q 1122 3375 1075 2522 
Q 1259 2794 1537 2939 
Q 1816 3084 2150 3084 
Q 2853 3084 3261 2657 
Q 3669 2231 3669 1497 
Q 3669 778 3244 343 
Q 2819 -91 2113 -91 
Q 1303 -91 875 529 
Q 447 1150 447 2328 
Q 447 3434 972 4092 
Q 1497 4750 2381 4750 
Q 2619 4750 2861 4703 
Q 3103 4656 3366 4563 
z
" transform="scale(0.015625)"/>
       </defs>
       <use xlink:href="#DejaVuSans-36"/>
       <use xlink:href="#DejaVuSans-30" x="63.623047"/>
      </g>
     </g>
    </g>
    <g id="ytick_5">
     <g id="line2d_13">
      <g>
       <use xlink:href="#m8f4fd85fdf" x="57.6" y="94.6944" style="stroke: #000000; stroke-width: 0.8"/>
      </g>
     </g>
     <g id="text_14">
      <!-- 80 -->
      <g transform="translate(37.875 98.493619) scale(0.1 -0.1)">
       <defs>
        <path id="DejaVuSans-38" d="M 2034 2216 
Q 1584 2216 1326 1975 
Q 1069 1734 1069 1313 
Q 1069 891 1326 650 
Q 1584 409 2034 409 
Q 2484 409 2743 651 
Q 3003 894 3003 1313 
Q 3003 1734 2745 1975 
Q 2488 2216 2034 2216 
z
M 1403 2484 
Q 997 2584 770 2862 
Q 544 3141 544 3541 
Q 544 4100 942 4425 
Q 1341 4750 2034 4750 
Q 2731 4750 3128 4425 
Q 3525 4100 3525 3541 
Q 3525 3141 3298 2862 
Q 3072 2584 2669 2484 
Q 3125 2378 3379 2068 
Q 3634 1759 3634 1313 
Q 3634 634 3220 271 
Q 2806 -91 2034 -91 
Q 1263 -91 848 271 
Q 434 634 434 1313 
Q 434 1759 690 2068 
Q 947 2378 1403 2484 
z
M 1172 3481 
Q 1172 3119 1398 2916 
Q 1625 2713 2034 2713 
Q 2441 2713 2670 2916 
Q 2900 3119 2900 3481 
Q 2900 3844 2670 4047 
Q 2441 4250 2034 4250 
Q 1625 4250 1398 4047 
Q 1172 3844 1172 3481 
z
" transform="scale(0.015625)"/>
       </defs>
       <use xlink:href="#DejaVuSans-38"/>
       <use xlink:href="#DejaVuSans-30" x="63.623047"/>
      </g>
     </g>
    </g>
    <g id="ytick_6">
     <g id="line2d_14">
      <g>
       <use xlink:href="#m8f4fd85fdf" x="57.6" y="41.472" style="stroke: #000000; stroke-width: 0.8"/>
      </g>
     </g>
     <g id="text_15">
      <!-- 100 -->
      <g transform="translate(31.5125 45.271219) scale(0.1 -0.1)">
       <use xlink:href="#DejaVuSans-31"/>
       <use xlink:href="#DejaVuSans-30" x="63.623047"/>
       <use xlink:href="#DejaVuSans-30" x="127.246094"/>
      </g>
     </g>
    </g>
    <g id="text_16">
     <!-- T / % -->
     <g transform="translate(25.432812 187.195188) rotate(-90) scale(0.1 -0.1)">
      <defs>
       <path id="DejaVuSans-54" d="M -19 4666 
L 3928 4666 
L 3928 4134 
L 2272 4134 
L 2272 0 
L 1638 0 
L 1638 4134 
L -19 4134 
L -19 4666 
z
" transform="scale(0.015625)"/>
       <path id="DejaVuSans-25" d="M 4653 2053 
Q 4381 2053 4226 1822 
Q 4072 1591 4072 1178 
Q 4072 772 4226 539 
Q 4381 306 4653 306 
Q 4919 306 5073 539 
Q 5228 772 5228 1178 
Q 5228 1588 5073 1820 
Q 4919 2053 4653 2053 
z
M 4653 2450 
Q 5147 2450 5437 2106 
Q 5728 1763 5728 1178 
Q 5728 594 5436 251 
Q 5144 -91 4653 -91 
Q 4153 -91 3862 251 
Q 3572 594 3572 1178 
Q 3572 1766 3864 2108 
Q 4156 2450 4653 2450 
z
M 1428 4353 
Q 1159 4353 1004 4120 
Q 850 3888 850 3481 
Q 850 3069 1003 2837 
Q 1156 2606 1428 2606 
Q 1700 2606 1854 2837 
Q 2009 3069 2009 3481 
Q 2009 3884 1853 4118 
Q 1697 4353 1428 4353 
z
M 4250 4750 
L 4750 4750 
L 1831 -91 
L 1331 -91 
L 4250 4750 
z
M 1428 4750 
Q 1922 4750 2215 4408 
Q 2509 4066 2509 3481 
Q 2509 2891 2217 2550 
Q 1925 2209 1428 2209 
Q 931 2209 642 2551 
Q 353 2894 353 3481 
Q 353 4063 643 4406 
Q 934 4750 1428 4750 
z
" transform="scale(0.015625)"/>
      </defs>
      <use xlink:href="#DejaVuSans-54"/>
      <use xlink:href="#DejaVuSans-20" x="61.083984"/>
      <use xlink:href="#DejaVuSans-2f" x="92.871094"/>
      <use xlink:href="#DejaVuSans-20" x="126.5625"/>
      <use xlink:href="#DejaVuSans-25" x="158.349609"/>
     </g>
    </g>
   </g>
   <g id="line2d_15">
    <path d="M 57.702034 57.039552 
L 58.722377 56.98633 
L 59.02848 56.693606 
L 59.436617 56.77344 
L 59.844754 56.533939 
L 60.558994 56.879885 
L 61.1712 56.533939 
L 61.579337 56.826662 
L 62.089509 56.640384 
L 62.59968 56.853274 
L 63.517989 56.427494 
L 64.334263 56.533939 
L 65.150537 56.427494 
L 65.45664 56.374272 
L 66.17088 56.640384 
L 66.579017 56.267827 
L 66.783086 56.400883 
L 67.089189 56.613773 
L 67.701394 56.187994 
L 68.007497 56.028326 
L 68.619703 56.241216 
L 68.925806 56.10816 
L 69.333943 56.081549 
L 69.640046 56.081549 
L 70.150217 55.868659 
L 70.558354 55.682381 
L 70.966491 55.65577 
L 71.374629 55.868659 
L 72.088869 55.975104 
L 73.109211 55.469491 
L 73.619383 55.735603 
L 73.823451 55.682381 
L 74.129554 55.575936 
L 74.435657 55.575936 
L 74.843794 55.469491 
L 75.047863 55.44288 
L 75.456 55.336435 
L 75.966171 55.256602 
L 76.17024 55.363046 
L 76.476343 55.22999 
L 76.986514 55.575936 
L 77.190583 55.336435 
L 77.394651 55.070323 
L 77.700754 55.017101 
L 77.904823 54.910656 
L 78.210926 55.176768 
L 78.414994 55.256602 
L 79.231269 55.123546 
L 79.639406 55.150157 
L 80.45568 55.043712 
L 81.271954 55.150157 
L 81.476023 55.043712 
L 81.782126 54.857434 
L 82.292297 54.937267 
L 82.5984 54.884045 
L 83.006537 54.884045 
L 83.414674 55.123546 
L 83.720777 54.963878 
L 84.02688 55.070323 
L 84.332983 54.99049 
L 84.537051 54.910656 
L 84.843154 54.7776 
L 85.557394 54.671155 
L 86.271634 54.484877 
L 86.679771 54.750989 
L 87.59808 54.617933 
L 88.006217 54.511488 
L 88.516389 54.271987 
L 89.02656 54.884045 
L 89.128594 54.7776 
L 89.434697 54.405043 
L 89.842834 54.511488 
L 90.353006 54.538099 
L 90.659109 54.511488 
L 91.067246 54.724378 
L 91.373349 54.56471 
L 91.88352 54.671155 
L 92.393691 54.697766 
L 92.699794 54.697766 
L 93.312 55.283213 
L 93.618103 55.549325 
L 94.332343 55.283213 
L 94.536411 55.44288 
L 94.842514 55.708992 
L 95.046583 55.815437 
L 95.352686 56.134771 
L 95.964891 56.214605 
L 96.373029 56.427494 
L 96.781166 56.32105 
L 96.985234 56.347661 
L 97.495406 56.98633 
L 98.413714 57.092774 
L 98.719817 57.545165 
L 98.923886 57.837888 
L 99.127954 57.811277 
L 99.842194 57.65161 
L 100.148297 58.104 
L 100.4544 58.449946 
L 100.964571 58.503168 
L 101.984914 59.407949 
L 102.495086 59.328115 
L 102.699154 59.594227 
L 103.107291 60.392563 
L 103.413394 60.445786 
L 103.617463 60.365952 
L 104.535771 60.924787 
L 104.943909 61.297344 
L 105.658149 61.723123 
L 105.964251 61.696512 
L 106.16832 61.802957 
L 106.780526 62.441626 
L 107.086629 62.494848 
L 107.698834 63.133517 
L 108.106971 62.920627 
L 108.31104 63.186739 
L 108.617143 63.559296 
L 109.229349 64.064909 
L 109.433417 64.064909 
L 110.045623 64.277798 
L 110.249691 64.437466 
L 110.657829 64.996301 
L 110.963931 65.076134 
L 111.474103 65.155968 
L 111.984274 65.688192 
L 113.412754 67.071974 
L 113.718857 67.178419 
L 114.126994 67.87031 
L 114.433097 68.242867 
L 115.147337 68.721869 
L 115.351406 69.041203 
L 116.065646 70.611264 
L 116.88192 71.356378 
L 117.392091 71.542656 
L 117.698194 71.915213 
L 118.106331 72.07488 
L 119.942949 74.150554 
L 120.351086 74.52311 
L 120.759223 74.975501 
L 122.085669 77.530176 
L 123.820251 83.783808 
L 124.840594 88.360934 
L 125.248731 89.744717 
L 125.860937 91.900224 
L 127.289417 94.6944 
L 128.003657 95.466125 
L 128.30976 95.838682 
L 128.717897 96.370906 
L 128.921966 96.450739 
L 129.228069 97.062797 
L 129.636206 97.754688 
L 130.248411 98.68608 
L 130.860617 99.936806 
L 131.268754 100.921421 
L 131.778926 101.56009 
L 132.391131 103.076928 
L 133.105371 104.726822 
L 133.717577 105.79127 
L 136.778606 115.131802 
L 137.288777 115.850304 
L 138.003017 115.956749 
L 138.615223 115.158413 
L 139.635566 114.227021 
L 139.941669 113.614963 
L 140.349806 112.683571 
L 140.757943 111.885235 
L 141.370149 110.66112 
L 142.492526 109.676506 
L 142.798629 109.197504 
L 143.410834 108.958003 
L 144.02304 108.45239 
L 144.533211 108.612058 
L 144.839314 107.973389 
L 145.247451 107.308109 
L 146.267794 106.403328 
L 147.59424 104.487322 
L 147.900343 104.301043 
L 148.206446 104.061542 
L 148.614583 103.635763 
L 149.634926 103.13015 
L 150.043063 103.289818 
L 150.349166 103.289818 
L 151.267474 103.928486 
L 152.185783 103.768819 
L 152.797989 103.955098 
L 153.410194 104.726822 
L 154.430537 105.152602 
L 154.940709 105.205824 
L 155.961051 104.513933 
L 156.369189 104.487322 
L 157.287497 104.646989 
L 157.5936 104.513933 
L 158.205806 104.913101 
L 158.511909 105.55177 
L 158.920046 106.243661 
L 159.124114 106.137216 
L 160.552594 104.407488 
L 161.062766 104.194598 
L 161.266834 104.167987 
L 161.572937 104.114765 
L 161.777006 104.141376 
L 162.083109 104.167987 
L 162.389211 104.513933 
L 162.797349 105.578381 
L 163.103451 107.148442 
L 163.511589 111.166733 
L 163.919726 114.599578 
L 164.123794 114.892301 
L 164.327863 114.599578 
L 164.633966 113.455296 
L 165.960411 106.988774 
L 166.87872 105.312269 
L 167.388891 104.88649 
L 167.694994 104.833267 
L 168.205166 104.141376 
L 168.511269 103.768819 
L 169.02144 103.715597 
L 169.939749 103.13015 
L 170.44992 102.970483 
L 171.572297 102.597926 
L 172.59264 101.586701 
L 173.000777 101.746368 
L 173.204846 101.506867 
L 173.612983 100.948032 
L 174.02112 100.761754 
L 174.327223 100.948032 
L 174.73536 101.240755 
L 174.939429 101.187533 
L 175.143497 101.427034 
L 175.4496 101.826202 
L 175.653669 101.852813 
L 175.959771 101.400422 
L 176.469943 99.936806 
L 177.184183 98.313523 
L 178.000457 97.408742 
L 178.408594 97.35552 
L 180.551314 95.81207 
L 180.857417 95.705626 
L 182.592 94.90729 
L 183.510309 94.827456 
L 183.816411 94.667789 
L 184.632686 94.747622 
L 184.836754 94.747622 
L 185.346926 94.428288 
L 186.979474 94.48151 
L 187.285577 94.587955 
L 189.02016 94.24201 
L 189.7344 94.321843 
L 190.346606 94.082342 
L 191.16288 94.135565 
L 191.366949 94.215398 
L 191.775086 94.108954 
L 192.183223 94.162176 
L 192.489326 94.321843 
L 192.999497 94.401677 
L 194.632046 95.173402 
L 195.040183 95.14679 
L 196.978834 95.545958 
L 197.284937 95.545958 
L 197.693074 95.652403 
L 197.897143 95.652403 
L 198.30528 95.758848 
L 198.713417 95.545958 
L 198.917486 95.625792 
L 199.121554 95.492736 
L 199.427657 95.120179 
L 200.550034 94.933901 
L 200.754103 94.880678 
L 201.16224 94.667789 
L 201.570377 94.48151 
L 201.87648 94.348454 
L 202.182583 94.24201 
L 202.692754 93.550118 
L 202.998857 93.736397 
L 203.30496 93.496896 
L 204.325303 92.565504 
L 204.937509 92.352614 
L 205.345646 92.192947 
L 206.774126 90.862387 
L 209.120914 89.026214 
L 209.529051 88.227878 
L 210.141257 88.174656 
L 210.855497 87.216653 
L 211.263634 87.003763 
L 211.569737 86.897318 
L 212.181943 86.418317 
L 212.488046 86.25865 
L 213.30432 85.566758 
L 213.610423 85.220813 
L 214.120594 84.688589 
L 214.528731 84.369254 
L 214.834834 84.076531 
L 215.345006 83.757197 
L 215.753143 83.38464 
L 216.87552 82.985472 
L 217.385691 82.50647 
L 217.895863 81.654912 
L 218.099931 81.681523 
L 218.304 81.761357 
L 218.508069 81.521856 
L 218.814171 81.096077 
L 219.324343 80.909798 
L 219.630446 80.803354 
L 219.936549 80.430797 
L 220.242651 80.457408 
L 220.752823 80.138074 
L 221.16096 79.685683 
L 221.569097 79.446182 
L 221.8752 79.499405 
L 222.283337 79.047014 
L 223.405714 78.009178 
L 223.711817 78.009178 
L 223.915886 78.115622 
L 224.01792 78.009178 
L 224.324023 77.157619 
L 224.426057 77.343898 
L 224.630126 78.035789 
L 224.73216 77.929344 
L 225.038263 76.94473 
L 225.242331 76.891507 
L 225.548434 76.598784 
L 225.752503 76.785062 
L 226.262674 76.252838 
L 226.466743 76.332672 
L 226.670811 75.906893 
L 226.87488 75.321446 
L 226.976914 75.294835 
L 227.385051 76.093171 
L 227.997257 75.161779 
L 228.201326 75.321446 
L 228.711497 75.933504 
L 228.915566 76.093171 
L 229.119634 75.747226 
L 229.527771 75.135168 
L 229.73184 75.18839 
L 229.935909 75.268224 
L 230.242011 75.028723 
L 230.548114 75.427891 
L 230.752183 75.215002 
L 230.956251 75.055334 
L 231.262354 75.135168 
L 231.466423 75.135168 
L 231.976594 75.454502 
L 232.486766 75.135168 
L 232.792869 75.268224 
L 233.507109 75.18839 
L 233.813211 75.321446 
L 234.323383 75.18839 
L 234.527451 74.922278 
L 234.629486 74.922278 
L 234.833554 75.135168 
L 235.037623 75.002112 
L 235.241691 74.815834 
L 236.466103 75.028723 
L 236.670171 75.028723 
L 237.282377 75.268224 
L 237.996617 75.108557 
L 238.200686 74.815834 
L 239.629166 75.161779 
L 239.935269 74.975501 
L 240.241371 75.294835 
L 240.44544 75.215002 
L 240.751543 75.40128 
L 241.261714 74.975501 
L 241.465783 75.321446 
L 241.771886 75.880282 
L 241.975954 75.720614 
L 242.486126 75.002112 
L 242.792229 74.576333 
L 242.996297 74.123942 
L 243.098331 74.150554 
L 244.118674 76.173005 
L 244.832914 75.986726 
L 245.139017 76.545562 
L 245.751223 77.61001 
L 245.955291 77.077786 
L 246.363429 75.800448 
L 246.567497 75.534336 
L 246.975634 75.587558 
L 247.281737 74.496499 
L 247.58784 73.61833 
L 247.689874 73.724774 
L 247.995977 74.336832 
L 248.404114 73.565107 
L 248.608183 73.61833 
L 248.914286 73.538496 
L 249.322423 74.203776 
L 249.424457 74.097331 
L 249.832594 73.139328 
L 249.934629 73.19255 
L 250.4448 74.150554 
L 250.648869 73.937664 
L 250.852937 73.751386 
L 251.261074 74.07072 
L 251.465143 74.203776 
L 251.771246 73.644941 
L 252.077349 73.165939 
L 252.383451 73.219162 
L 252.58752 73.112717 
L 252.791589 73.139328 
L 252.995657 72.873216 
L 253.199726 72.74016 
L 253.403794 72.95305 
L 253.607863 72.660326 
L 253.811931 72.553882 
L 254.118034 72.95305 
L 254.322103 73.006272 
L 254.73024 73.565107 
L 254.934309 73.777997 
L 255.036343 73.61833 
L 255.44448 72.447437 
L 255.852617 72.447437 
L 256.362789 71.4096 
L 256.566857 71.462822 
L 256.770926 71.489434 
L 256.974994 71.4096 
L 257.281097 72.154714 
L 257.689234 71.356378 
L 258.097371 72.28777 
L 258.30144 72.128102 
L 258.709577 71.143488 
L 259.01568 71.675712 
L 259.321783 71.276544 
L 259.525851 71.4096 
L 259.72992 70.664486 
L 259.933989 70.07904 
L 260.342126 69.972595 
L 260.648229 69.466982 
L 260.954331 69.387149 
L 261.87264 68.216256 
L 262.178743 68.74848 
L 262.382811 68.242867 
L 262.58688 67.710643 
L 262.892983 67.63081 
L 263.097051 67.284864 
L 263.199086 67.364698 
L 263.403154 67.763866 
L 263.607223 67.710643 
L 263.913326 67.391309 
L 264.321463 66.859085 
L 264.627566 66.912307 
L 265.035703 66.220416 
L 265.44384 67.231642 
L 266.056046 65.847859 
L 266.362149 66.08736 
L 266.770286 65.342246 
L 266.974354 65.847859 
L 267.178423 66.433306 
L 267.280457 66.459917 
L 267.58656 66.193805 
L 267.790629 66.619584 
L 267.994697 67.098586 
L 268.096731 67.071974 
L 268.504869 66.247027 
L 268.810971 66.566362 
L 269.01504 66.034138 
L 269.321143 65.20919 
L 269.627246 65.049523 
L 269.831314 64.996301 
L 270.239451 64.410854 
L 270.647589 63.42624 
L 271.055726 62.814182 
L 271.463863 61.88279 
L 271.872 61.270733 
L 272.178103 61.111066 
L 272.58624 60.499008 
L 272.994377 59.64745 
L 273.30048 59.753894 
L 273.810651 59.274893 
L 274.01472 59.274893 
L 274.524891 58.822502 
L 274.72896 58.928947 
L 274.933029 58.716058 
L 275.341166 57.944333 
L 275.647269 57.758054 
L 276.055406 57.358886 
L 276.259474 57.252442 
L 276.565577 57.332275 
L 276.973714 56.906496 
L 277.279817 57.465331 
L 277.381851 57.358886 
L 277.687954 56.666995 
L 278.30016 56.56055 
L 278.810331 56.720218 
L 279.0144 56.746829 
L 279.218469 56.906496 
L 279.626606 56.800051 
L 280.238811 56.720218 
L 280.748983 56.906496 
L 281.15712 56.081549 
L 281.361189 55.735603 
L 281.565257 55.89527 
L 281.769326 56.10816 
L 281.973394 55.735603 
L 282.279497 55.176768 
L 282.687634 55.389658 
L 283.29984 54.511488 
L 283.503909 54.378432 
L 284.320183 53.473651 
L 284.524251 54.085709 
L 284.72832 54.431654 
L 284.932389 53.819597 
L 285.340526 52.622093 
L 285.44256 52.648704 
L 285.748663 53.047872 
L 286.054766 52.808371 
L 286.258834 52.78176 
L 286.564937 52.489037 
L 286.87104 53.154317 
L 287.279177 53.89943 
L 287.483246 54.271987 
L 287.687314 55.176768 
L 288.095451 58.609613 
L 288.29952 61.749734 
L 288.605623 70.824154 
L 288.809691 87.190042 
L 289.319863 131.790413 
L 289.625966 140.412442 
L 289.932069 144.324288 
L 290.238171 150.977088 
L 290.544274 164.389133 
L 290.850377 175.40617 
L 290.952411 176.497229 
L 291.054446 175.85856 
L 291.258514 170.509709 
L 292.686994 116.462362 
L 293.095131 108.079834 
L 293.503269 103.076928 
L 293.911406 101.3472 
L 294.115474 101.400422 
L 294.217509 101.373811 
L 294.625646 101.79959 
L 294.72768 101.666534 
L 294.829714 101.746368 
L 295.339886 102.917261 
L 295.850057 104.354266 
L 296.360229 106.00416 
L 296.564297 107.201664 
L 296.8704 109.463616 
L 296.972434 109.570061 
L 297.482606 110.900621 
L 298.196846 112.550515 
L 298.809051 115.610803 
L 299.319223 117.340531 
L 300.237531 122.050714 
L 300.543634 126.920563 
L 300.849737 138.922214 
L 301.15584 147.198298 
L 301.359909 148.768358 
L 301.461943 148.422413 
L 301.768046 144.643622 
L 302.380251 136.367539 
L 302.58432 135.303091 
L 302.686354 135.116813 
L 302.788389 135.170035 
L 303.29856 136.713485 
L 303.604663 138.416602 
L 304.0128 140.59872 
L 304.114834 140.59872 
L 304.318903 139.853606 
L 305.135177 135.94176 
L 305.339246 136.500595 
L 305.747383 137.884378 
L 306.15552 137.458598 
L 306.767726 139.161715 
L 307.073829 139.081882 
L 307.379931 140.066496 
L 307.788069 142.514726 
L 308.604343 147.278131 
L 308.808411 147.650688 
L 309.114514 147.810355 
L 309.318583 148.342579 
L 309.522651 148.79497 
L 309.72672 148.635302 
L 310.032823 147.491021 
L 310.338926 145.92096 
L 311.359269 138.230323 
L 311.461303 137.9376 
L 311.563337 137.990822 
L 311.767406 138.656102 
L 311.971474 140.226163 
L 312.175543 142.115558 
L 312.379611 142.434893 
L 312.58368 142.301837 
L 312.787749 141.47689 
L 314.01216 129.980851 
L 314.7264 123.780442 
L 315.032503 122.556326 
L 315.338606 121.704768 
L 316.052846 118.43159 
L 316.460983 117.234086 
L 316.563017 117.31392 
L 316.971154 118.937203 
L 317.277257 121.944269 
L 317.889463 128.62368 
L 318.093531 126.947174 
L 318.399634 124.312666 
L 318.501669 124.738445 
L 318.705737 129.475238 
L 319.01184 147.836966 
L 319.317943 166.890586 
L 319.419977 166.438195 
L 319.624046 160.317619 
L 320.542354 123.008717 
L 321.15456 112.44407 
L 321.358629 111.3264 
L 321.562697 111.140122 
L 321.664731 111.353011 
L 321.970834 113.295629 
L 322.378971 117.899366 
L 322.889143 127.266509 
L 324.215589 158.002445 
L 324.623726 164.202854 
L 325.031863 167.050253 
L 325.542034 168.913037 
L 325.746103 169.072704 
L 325.950171 168.673536 
L 326.256274 167.156698 
L 326.562377 163.936742 
L 327.786789 146.000794 
L 329.827474 126.361728 
L 330.337646 122.769216 
L 330.541714 122.290214 
L 330.643749 122.396659 
L 330.847817 123.51433 
L 331.051886 126.361728 
L 331.460023 137.431987 
L 331.664091 141.743002 
L 331.766126 142.38167 
L 331.86816 142.168781 
L 332.174263 139.188326 
L 332.786469 132.189581 
L 332.888503 131.896858 
L 332.990537 132.136358 
L 333.194606 134.212032 
L 333.500709 140.705165 
L 334.214949 163.644019 
L 334.623086 186.982042 
L 335.43936 237.969101 
L 335.541394 239.006938 
L 335.643429 237.969101 
L 335.949531 227.271398 
L 336.561737 205.822771 
L 338.194286 161.967514 
L 339.112594 145.362125 
L 340.030903 132.748416 
L 340.337006 130.060685 
L 340.745143 128.783347 
L 340.949211 126.361728 
L 341.765486 113.960909 
L 342.173623 110.794176 
L 342.377691 110.049062 
L 342.479726 109.969229 
L 342.58176 110.182118 
L 342.785829 111.752179 
L 342.989897 115.850304 
L 343.398034 132.775027 
L 343.806171 145.787904 
L 344.418377 156.006605 
L 344.826514 153.45193 
L 345.132617 155.261491 
L 345.234651 155.128435 
L 345.948891 149.566694 
L 346.357029 138.070656 
L 346.8672 125.590003 
L 347.275337 119.97504 
L 347.683474 117.260698 
L 347.989577 116.19625 
L 348.193646 116.116416 
L 348.397714 116.089805 
L 349.418057 115.158413 
L 349.622126 115.238246 
L 349.826194 115.610803 
L 350.132297 117.047808 
L 350.4384 120.054874 
L 350.744503 126.521395 
L 351.050606 139.028659 
L 352.377051 207.020275 
L 352.683154 216.068083 
L 352.785189 216.467251 
L 352.989257 211.810291 
L 353.907566 178.280179 
L 354.927909 160.237786 
L 356.356389 135.356314 
L 356.86656 131.391245 
L 357.274697 128.943014 
L 357.376731 128.889792 
L 357.478766 129.155904 
L 357.682834 131.125133 
L 357.988937 139.294771 
L 358.29504 147.145075 
L 358.397074 147.757133 
L 358.499109 146.79913 
L 358.805211 137.139264 
L 359.315383 122.63616 
L 359.72352 117.52681 
L 360.335726 112.20457 
L 360.845897 109.596672 
L 361.049966 109.383782 
L 361.152 109.889395 
L 361.254034 111.486067 
L 361.458103 120.906432 
L 361.86624 145.92096 
L 361.968274 146.13385 
L 362.172343 141.184166 
L 362.886583 120.826598 
L 363.29472 113.242406 
L 363.702857 110.155507 
L 364.825234 105.205824 
L 364.927269 105.152602 
L 365.131337 105.658214 
L 365.335406 107.041997 
L 365.845577 111.219955 
L 366.049646 111.299789 
L 366.15168 111.619123 
L 366.253714 112.65696 
L 366.457783 120.320986 
L 366.661851 142.940506 
L 367.069989 189.430272 
L 367.172023 189.350438 
L 367.988297 166.730918 
L 368.702537 155.128435 
L 369.314743 144.217843 
L 371.15136 121.199155 
L 371.967634 113.189184 
L 372.885943 107.308109 
L 373.192046 105.578381 
L 373.498149 104.380877 
L 374.314423 103.236595 
L 374.518491 103.742208 
L 374.926629 105.179213 
L 375.334766 106.083994 
L 375.538834 105.977549 
L 375.844937 105.604992 
L 375.946971 105.738048 
L 376.15104 106.536384 
L 376.457143 109.250726 
L 377.375451 121.3056 
L 378.191726 138.310157 
L 378.395794 151.083533 
L 378.701897 173.889331 
L 378.803931 173.809498 
L 379.518171 142.780838 
L 380.538514 137.192486 
L 380.640549 137.618266 
L 380.844617 141.849446 
L 381.15072 148.874803 
L 381.252754 148.928026 
L 381.762926 144.164621 
L 381.966994 145.25568 
L 382.171063 146.320128 
L 382.273097 146.187072 
L 382.5792 143.898509 
L 383.089371 139.667328 
L 383.191406 139.374605 
L 383.29344 139.560883 
L 383.395474 140.731776 
L 383.599543 149.91264 
L 384.00768 175.911782 
L 384.211749 166.358362 
L 384.517851 150.444864 
L 384.72192 146.852352 
L 384.823954 146.506406 
L 384.925989 146.719296 
L 385.232091 147.757133 
L 385.334126 147.304742 
L 385.538194 144.404122 
L 385.946331 136.979597 
L 386.048366 137.219098 
L 386.252434 142.035725 
L 386.558537 157.762944 
L 387.170743 211.624013 
L 387.476846 235.94665 
L 387.57888 235.893427 
L 387.782949 222.028992 
L 388.29312 179.451072 
L 388.599223 169.072704 
L 388.905326 165.772915 
L 389.109394 165.293914 
L 389.211429 165.586637 
L 389.415497 167.449421 
L 389.619566 169.525094 
L 389.7216 169.684762 
L 389.925669 167.821978 
L 390.43584 161.67479 
L 391.252114 156.086438 
L 391.86432 153.638208 
L 392.476526 147.730522 
L 392.680594 147.331354 
L 392.884663 148.315968 
L 393.088731 150.524698 
L 393.394834 157.177498 
L 393.700937 162.632794 
L 393.802971 162.393293 
L 394.109074 159.625728 
L 394.211109 160.211174 
L 394.415177 167.955034 
L 394.823314 192.969562 
L 394.925349 190.654387 
L 395.537554 160.370842 
L 395.945691 153.159206 
L 396.353829 149.726362 
L 396.659931 148.049856 
L 397.170103 146.878963 
L 397.374171 146.107238 
L 397.476206 146.054016 
L 397.680274 146.37335 
L 397.986377 145.548403 
L 398.496549 146.240294 
L 398.700617 148.103078 
L 399.00672 155.261491 
L 399.312823 161.275622 
L 399.414857 161.195789 
L 399.618926 159.306394 
L 400.537234 149.114304 
L 400.741303 148.342579 
L 400.843337 148.608691 
L 401.14944 150.205363 
L 401.251474 150.019085 
L 401.86368 146.639462 
L 402.271817 145.947571 
L 402.475886 145.841126 
L 403.190126 144.430733 
L 403.496229 144.457344 
L 403.700297 144.084787 
L 404.210469 142.860672 
L 404.516571 141.902669 
L 404.822674 141.530112 
L 405.026743 141.370445 
L 405.230811 141.769613 
L 405.536914 142.434893 
L 405.945051 142.062336 
L 406.353189 142.328448 
L 406.557257 142.461504 
L 406.965394 141.636557 
L 407.169463 141.849446 
L 407.5776 141.636557 
L 407.883703 141.955891 
L 408.597943 141.876058 
L 409.108114 143.92512 
L 409.312183 145.308902 
L 409.924389 150.631142 
L 410.43456 153.212429 
L 410.638629 153.797875 
L 410.842697 155.846938 
L 411.556937 168.247757 
L 411.658971 168.859814 
L 411.761006 168.806592 
L 412.57728 165.267302 
L 412.679314 165.054413 
L 412.781349 165.293914 
L 413.495589 170.243597 
L 413.597623 170.376653 
L 413.801691 169.897651 
L 413.903726 170.137152 
L 414.413897 174.953779 
L 414.515931 174.873946 
L 414.924069 173.86272 
L 415.230171 170.08393 
L 415.536274 166.943808 
L 416.046446 165.42697 
L 416.352549 164.974579 
L 416.454583 165.027802 
L 416.760686 165.932582 
L 416.86272 165.480192 
L 417.270857 161.488512 
L 417.474926 160.450675 
L 417.781029 158.614502 
L 417.985097 160.184563 
L 418.699337 168.99287 
L 418.801371 169.072704 
L 418.903406 168.779981 
L 419.107474 166.99703 
L 419.617646 160.424064 
L 420.025783 161.67479 
L 420.229851 160.291008 
L 420.637989 155.873549 
L 420.740023 156.006605 
L 421.046126 158.029056 
L 421.14816 157.842778 
L 421.8624 154.676045 
L 421.964434 154.463155 
L 422.168503 154.5696 
L 422.372571 152.467315 
L 422.57664 150.79081 
L 422.678674 151.615757 
L 423.086811 158.375002 
L 423.392914 152.520538 
L 423.494949 153.23904 
L 423.801051 157.204109 
L 423.903086 156.432384 
L 424.311223 151.003699 
L 424.515291 153.558374 
L 424.71936 156.698496 
L 424.923429 156.911386 
L 424.923429 156.911386 
" clip-path="url(#p895fe71ace)" style="fill: none; stroke: #000000; stroke-width: 0.4; stroke-linecap: square"/>
   </g>
   <g id="patch_3">
    <path d="M 57.6 307.584 
L 57.6 41.472 
" style="fill: none; stroke: #000000; stroke-width: 0.8; stroke-linejoin: miter; stroke-linecap: square"/>
   </g>
   <g id="patch_4">
    <path d="M 414.72 307.584 
L 414.72 41.472 
" style="fill: none; stroke: #000000; stroke-width: 0.8; stroke-linejoin: miter; stroke-linecap: square"/>
   </g>
   <g id="patch_5">
    <path d="M 57.6 307.584 
L 414.72 307.584 
" style="fill: none; stroke: #000000; stroke-width: 0.8; stroke-linejoin: miter; stroke-linecap: square"/>
   </g>
   <g id="patch_6">
    <path d="M 57.6 41.472 
L 414.72 41.472 
" style="fill: none; stroke: #000000; stroke-width: 0.8; stroke-linejoin: miter; stroke-linecap: square"/>
   </g>
   <g id="legend_1">
    <g id="patch_7">
     <path d="M 347.4325 64.150125 
L 407.72 64.150125 
Q 409.72 64.150125 409.72 62.150125 
L 409.72 48.472 
Q 409.72 46.472 407.72 46.472 
L 347.4325 46.472 
Q 345.4325 46.472 345.4325 48.472 
L 345.4325 62.150125 
Q 345.4325 64.150125 347.4325 64.150125 
z
" style="fill: #ffffff; opacity: 0.8; stroke: #cccccc; stroke-linejoin: miter"/>
    </g>
    <g id="line2d_16">
     <path d="M 349.4325 54.570438 
L 359.4325 54.570438 
L 369.4325 54.570438 
" style="fill: none; stroke: #000000; stroke-width: 0.4; stroke-linecap: square"/>
    </g>
    <g id="text_17">
     <!-- SM1R -->
     <g transform="translate(377.4325 58.070438) scale(0.1 -0.1)">
      <defs>
       <path id="DejaVuSans-53" d="M 3425 4513 
L 3425 3897 
Q 3066 4069 2747 4153 
Q 2428 4238 2131 4238 
Q 1616 4238 1336 4038 
Q 1056 3838 1056 3469 
Q 1056 3159 1242 3001 
Q 1428 2844 1947 2747 
L 2328 2669 
Q 3034 2534 3370 2195 
Q 3706 1856 3706 1288 
Q 3706 609 3251 259 
Q 2797 -91 1919 -91 
Q 1588 -91 1214 -16 
Q 841 59 441 206 
L 441 856 
Q 825 641 1194 531 
Q 1563 422 1919 422 
Q 2459 422 2753 634 
Q 3047 847 3047 1241 
Q 3047 1584 2836 1778 
Q 2625 1972 2144 2069 
L 1759 2144 
Q 1053 2284 737 2584 
Q 422 2884 422 3419 
Q 422 4038 858 4394 
Q 1294 4750 2059 4750 
Q 2388 4750 2728 4690 
Q 3069 4631 3425 4513 
z
" transform="scale(0.015625)"/>
       <path id="DejaVuSans-4d" d="M 628 4666 
L 1569 4666 
L 2759 1491 
L 3956 4666 
L 4897 4666 
L 4897 0 
L 4281 0 
L 4281 4097 
L 3078 897 
L 2444 897 
L 1241 4097 
L 1241 0 
L 628 0 
L 628 4666 
z
" transform="scale(0.015625)"/>
       <path id="DejaVuSans-52" d="M 2841 2188 
Q 3044 2119 3236 1894 
Q 3428 1669 3622 1275 
L 4263 0 
L 3584 0 
L 2988 1197 
Q 2756 1666 2539 1819 
Q 2322 1972 1947 1972 
L 1259 1972 
L 1259 0 
L 628 0 
L 628 4666 
L 2053 4666 
Q 2853 4666 3247 4331 
Q 3641 3997 3641 3322 
Q 3641 2881 3436 2590 
Q 3231 2300 2841 2188 
z
M 1259 4147 
L 1259 2491 
L 2053 2491 
Q 2509 2491 2742 2702 
Q 2975 2913 2975 3322 
Q 2975 3731 2742 3939 
Q 2509 4147 2053 4147 
L 1259 4147 
z
" transform="scale(0.015625)"/>
      </defs>
      <use xlink:href="#DejaVuSans-53"/>
      <use xlink:href="#DejaVuSans-4d" x="63.476562"/>
      <use xlink:href="#DejaVuSans-31" x="149.755859"/>
      <use xlink:href="#DejaVuSans-52" x="213.378906"/>
     </g>
    </g>
   </g>
  </g>
  <g id="axes_2">
   <g id="matplotlib.axis_3">
    <g id="ytick_7">
     <g id="line2d_17">
      <defs>
       <path id="m0b4af46ab3" d="M 0 0 
L 3.5 0 
" style="stroke: #000000; stroke-width: 0.8"/>
      </defs>
      <g>
       <use xlink:href="#m0b4af46ab3" x="414.72" y="307.584" style="stroke: #000000; stroke-width: 0.8"/>
      </g>
     </g>
    </g>
    <g id="ytick_8">
     <g id="line2d_18">
      <g>
       <use xlink:href="#m0b4af46ab3" x="414.72" y="254.3616" style="stroke: #000000; stroke-width: 0.8"/>
      </g>
     </g>
    </g>
    <g id="ytick_9">
     <g id="line2d_19">
      <g>
       <use xlink:href="#m0b4af46ab3" x="414.72" y="201.1392" style="stroke: #000000; stroke-width: 0.8"/>
      </g>
     </g>
    </g>
    <g id="ytick_10">
     <g id="line2d_20">
      <g>
       <use xlink:href="#m0b4af46ab3" x="414.72" y="147.9168" style="stroke: #000000; stroke-width: 0.8"/>
      </g>
     </g>
    </g>
    <g id="ytick_11">
     <g id="line2d_21">
      <g>
       <use xlink:href="#m0b4af46ab3" x="414.72" y="94.6944" style="stroke: #000000; stroke-width: 0.8"/>
      </g>
     </g>
    </g>
    <g id="ytick_12">
     <g id="line2d_22">
      <g>
       <use xlink:href="#m0b4af46ab3" x="414.72" y="41.472" style="stroke: #000000; stroke-width: 0.8"/>
      </g>
     </g>
    </g>
   </g>
   <g id="patch_8">
    <path d="M 57.6 307.584 
L 57.6 41.472 
" style="fill: none; stroke: #000000; stroke-width: 0.8; stroke-linejoin: miter; stroke-linecap: square"/>
   </g>
   <g id="patch_9">
    <path d="M 414.72 307.584 
L 414.72 41.472 
" style="fill: none; stroke: #000000; stroke-width: 0.8; stroke-linejoin: miter; stroke-linecap: square"/>
   </g>
   <g id="patch_10">
    <path d="M 57.6 307.584 
L 414.72 307.584 
" style="fill: none; stroke: #000000; stroke-width: 0.8; stroke-linejoin: miter; stroke-linecap: square"/>
   </g>
   <g id="patch_11">
    <path d="M 57.6 41.472 
L 414.72 41.472 
" style="fill: none; stroke: #000000; stroke-width: 0.8; stroke-linejoin: miter; stroke-linecap: square"/>
   </g>
  </g>
  <g id="axes_3">
   <g id="matplotlib.axis_4">
    <g id="xtick_9">
     <g id="line2d_23">
      <defs>
       <path id="mf081c57afa" d="M 0 0 
L 0 -3.5 
" style="stroke: #000000; stroke-width: 0.8"/>
      </defs>
      <g>
       <use xlink:href="#mf081c57afa" x="102.24" y="41.472" style="stroke: #000000; stroke-width: 0.8"/>
      </g>
     </g>
    </g>
    <g id="xtick_10">
     <g id="line2d_24">
      <g>
       <use xlink:href="#mf081c57afa" x="146.88" y="41.472" style="stroke: #000000; stroke-width: 0.8"/>
      </g>
     </g>
    </g>
    <g id="xtick_11">
     <g id="line2d_25">
      <g>
       <use xlink:href="#mf081c57afa" x="191.52" y="41.472" style="stroke: #000000; stroke-width: 0.8"/>
      </g>
     </g>
    </g>
    <g id="xtick_12">
     <g id="line2d_26">
      <g>
       <use xlink:href="#mf081c57afa" x="236.16" y="41.472" style="stroke: #000000; stroke-width: 0.8"/>
      </g>
     </g>
    </g>
    <g id="xtick_13">
     <g id="line2d_27">
      <g>
       <use xlink:href="#mf081c57afa" x="280.8" y="41.472" style="stroke: #000000; stroke-width: 0.8"/>
      </g>
     </g>
    </g>
    <g id="xtick_14">
     <g id="line2d_28">
      <g>
       <use xlink:href="#mf081c57afa" x="325.44" y="41.472" style="stroke: #000000; stroke-width: 0.8"/>
      </g>
     </g>
    </g>
    <g id="xtick_15">
     <g id="line2d_29">
      <g>
       <use xlink:href="#mf081c57afa" x="370.08" y="41.472" style="stroke: #000000; stroke-width: 0.8"/>
      </g>
     </g>
    </g>
    <g id="xtick_16">
     <g id="line2d_30">
      <g>
       <use xlink:href="#mf081c57afa" x="414.72" y="41.472" style="stroke: #000000; stroke-width: 0.8"/>
      </g>
     </g>
    </g>
   </g>
   <g id="patch_12">
    <path d="M 57.6 307.584 
L 57.6 41.472 
" style="fill: none; stroke: #000000; stroke-width: 0.8; stroke-linejoin: miter; stroke-linecap: square"/>
   </g>
   <g id="patch_13">
    <path d="M 414.72 307.584 
L 414.72 41.472 
" style="fill: none; stroke: #000000; stroke-width: 0.8; stroke-linejoin: miter; stroke-linecap: square"/>
   </g>
   <g id="patch_14">
    <path d="M 57.6 307.584 
L 414.72 307.584 
" style="fill: none; stroke: #000000; stroke-width: 0.8; stroke-linejoin: miter; stroke-linecap: square"/>
   </g>
   <g id="patch_15">
    <path d="M 57.6 41.472 
L 414.72 41.472 
" style="fill: none; stroke: #000000; stroke-width: 0.8; stroke-linejoin: miter; stroke-linecap: square"/>
   </g>
  </g>
 </g>
 <defs>
  <clipPath id="p895fe71ace">
   <rect x="57.6" y="41.472" width="357.12" height="266.112"/>
  </clipPath>
 </defs>
</svg>
